# xmcd
#
# Track frame offsets:
#	150
#	11977
#	24438
#	34835
#	47174
#	58525
#	67817
#	80978
#	94092
#	106527
#	121703
#	130914
#	144132
#	156624
#	169863
#	180001
#	194196
#	206310
#	215327
#	227292
#
# Disc length: 3152 seconds
#
# Revision: 0
# Processed by: cddbd v1.5PL3 Copyright (c) Steve Scherf et al.
# Submitted via: dBpowerAMP V4.0
#
DISCID=070c4e14
DTITLE=Various Artist - Country Men
DYEAR=2002
DGENRE=Country
TTITLE0=Waylon Jennings/Crying
TTITLE1=Kenny Rogers/Ruben James
TTITLE2=Dave Dudley/Six Days on the Road
TTITLE3=Freddy Fender/Wasted Days and Wasted Nights
TTITLE4=Don Gibson/Sea of Heartache
TTITLE5=Mickey Gilley/Suzie Q
TTITLE6=Jack Greene/Statue of a Fool
TTITLE7=Ferlin Husky/Don't Fall Asleep at the Wheel
TTITLE8=Johnny Paycheck/Take This Job and Shove It
TTITLE9=Moe Bandy/Hank Williams You Wrote my Life
TTITLE10=Buck Owens/It Don't Show on Me
TTITLE11=T.G. Sheppard/Devil in the Bottle
TTITLE12=Porter Wagner/Satisfied Mind
TTITLE13=Kenny Rogers/Ruby Don't Take your Love to Town
TTITLE14=Faron Young/Hello Walls
TTITLE15=Moe Bandy/I Cheated me Right Out of You
TTITLE16=Freddy Fender/Before the Next TearDrop Falls
TTITLE17=Jack Greene/A Wonderful Time Up There
TTITLE18=Willie Nelson/Night Life
TTITLE19=Johnny Paycheck/Mr. Love Maker
EXTD=St. Clair - The Gold Collection
EXTT0=
EXTT1=
EXTT2=
EXTT3=
EXTT4=
EXTT5=
EXTT6=
EXTT7=
EXTT8=
EXTT9=
EXTT10=
EXTT11=
EXTT12=
EXTT13=
EXTT14=
EXTT15=
EXTT16=
EXTT17=
EXTT18=
EXTT19=
PLAYORDER=
